<?xml version="1.0" standalone="no"?>
<!DOCTYPE svg PUBLIC "-//W3C//DTD SVG 20010904//EN"
 "http://www.w3.org/TR/2001/REC-SVG-20010904/DTD/svg10.dtd">
<svg version="1.0" xmlns="http://www.w3.org/2000/svg"
 width="319.000000pt" height="320.000000pt" viewBox="0 0 319.000000 320.000000"
 preserveAspectRatio="xMidYMid meet">

<g transform="translate(0.000000,320.000000) scale(0.100000,-0.100000)"
fill="#000000" stroke="none">
<path d="M0 1600 l0 -1600 1595 0 1595 0 0 1600 0 1600 -1595 0 -1595 0 0
-1600z m1700 820 c8 -6 24 -14 35 -19 11 -5 37 -21 58 -35 21 -14 40 -26 42
-26 2 0 76 -43 164 -95 88 -52 163 -95 166 -95 4 0 27 -13 52 -30 24 -16 46
-30 48 -30 2 0 60 -34 128 -75 69 -41 129 -75 135 -75 6 0 12 -4 14 -8 4 -10
125 -82 139 -82 5 0 9 -4 9 -8 0 -4 12 -13 28 -20 15 -6 43 -21 62 -33 19 -11
92 -55 163 -96 70 -42 127 -79 127 -84 0 -9 -384 -239 -400 -239 -5 0 -10 -4
-10 -9 0 -5 -8 -11 -17 -15 -10 -3 -25 -10 -33 -15 -61 -41 -592 -351 -600
-351 -5 0 -10 -4 -10 -8 0 -4 -24 -20 -52 -35 -29 -16 -66 -37 -83 -47 -16
-11 -39 -24 -50 -30 -11 -6 -29 -16 -40 -23 -11 -7 -47 -27 -80 -46 -33 -19
-62 -38 -65 -41 -19 -24 -47 -18 -124 27 -112 66 -110 65 -158 92 -24 13 -62
36 -86 52 -24 16 -45 29 -48 29 -2 0 -86 49 -187 108 -100 59 -199 117 -219
127 -21 11 -38 23 -38 27 0 5 -5 8 -11 8 -14 0 -133 71 -137 82 -2 4 -8 8 -14
8 -5 0 -70 36 -143 80 -73 44 -136 80 -140 80 -3 0 -21 11 -38 24 -18 14 -43
29 -57 35 -26 11 -61 32 -70 41 -3 3 -17 11 -32 17 -16 7 -28 17 -28 23 0 14
27 12 37 -3 4 -7 19 -18 33 -25 14 -6 32 -16 40 -22 60 -39 291 -170 299 -170
6 0 11 -4 11 -10 0 -5 11 -12 25 -16 14 -3 25 -10 25 -15 0 -5 5 -9 11 -9 9 0
196 -107 299 -171 8 -5 35 -20 60 -34 25 -14 52 -30 60 -35 31 -20 222 -130
225 -130 2 0 23 -13 47 -29 52 -34 125 -77 154 -90 11 -5 51 -28 88 -50 36
-23 71 -41 76 -41 5 0 84 46 177 101 92 56 188 112 213 126 61 33 75 41 382
224 147 87 269 159 272 159 3 0 95 54 206 121 l201 121 -44 23 c-24 13 -118
68 -208 122 -90 54 -175 104 -189 111 -32 15 -60 34 -78 50 -7 6 -17 12 -22
12 -4 0 -110 61 -234 135 -125 74 -229 135 -232 135 -2 0 -23 12 -47 27 -60
39 -80 51 -97 59 -8 4 -75 43 -148 86 -72 44 -140 80 -150 81 -9 0 -68 -29
-130 -66 -62 -37 -117 -67 -122 -67 -6 0 -10 -4 -10 -10 0 -5 -5 -10 -11 -10
-6 0 -75 -38 -154 -85 -79 -47 -149 -85 -154 -85 -6 0 -11 -4 -11 -9 0 -5 -8
-11 -17 -15 -10 -3 -25 -10 -33 -15 -66 -42 -240 -141 -249 -141 -6 0 -11 -4
-11 -8 0 -5 -21 -19 -47 -32 -27 -13 -54 -30 -61 -37 -7 -7 -17 -13 -22 -13
-5 0 -54 -27 -108 -60 -55 -33 -105 -60 -111 -60 -6 0 -11 -4 -11 -8 0 -4 -12
-13 -27 -20 -16 -6 -41 -20 -58 -31 -36 -24 -104 -61 -110 -61 -18 0 2 19 42
40 26 14 54 31 61 38 7 6 20 12 28 12 8 0 14 4 14 9 0 5 8 11 18 15 9 3 24 10
32 15 66 42 240 141 249 141 6 0 11 4 11 10 0 5 11 12 25 16 14 3 25 10 25 14
0 4 11 11 25 14 14 4 25 11 25 16 0 6 5 10 11 10 8 0 328 185 399 230 8 6 22
13 30 17 8 4 69 39 135 78 66 39 127 74 135 78 8 4 29 16 45 27 17 11 42 26
58 32 15 7 27 16 27 20 0 4 6 8 14 8 7 0 19 6 25 14 11 13 20 10 64 -15 29
-16 59 -34 67 -39z m-61 -49 c25 -15 177 -106 336 -200 160 -95 297 -176 305
-182 8 -5 23 -12 33 -15 9 -4 17 -10 17 -14 0 -5 10 -12 23 -16 12 -3 41 -19
65 -35 24 -16 47 -29 53 -29 5 0 9 -4 9 -8 0 -4 12 -13 28 -20 15 -7 36 -18
47 -25 12 -6 96 -57 187 -111 102 -60 164 -104 162 -111 -3 -7 -22 -21 -42
-31 -20 -10 -44 -24 -52 -30 -8 -7 -78 -49 -155 -94 -77 -46 -152 -90 -167
-99 -102 -62 -171 -101 -179 -101 -5 0 -9 -4 -9 -9 0 -5 -8 -11 -17 -15 -10
-3 -47 -24 -83 -47 -36 -23 -105 -64 -153 -93 -49 -28 -105 -61 -125 -73 -20
-13 -44 -26 -52 -29 -8 -4 -28 -17 -45 -28 -80 -56 -213 -129 -235 -129 -19 0
-338 179 -450 253 -8 5 -33 19 -55 31 -41 23 -449 262 -475 280 -8 5 -23 12
-33 15 -9 4 -17 10 -17 14 0 5 -12 13 -27 19 -16 6 -41 20 -58 31 -16 11 -41
26 -55 33 -55 27 -170 100 -170 107 0 4 41 32 92 61 51 30 100 59 109 64 9 6
32 18 50 29 19 10 109 63 201 117 92 55 171 99 177 99 5 0 11 4 13 8 2 5 24
21 51 35 26 15 66 38 90 51 57 33 322 189 372 219 22 14 63 37 90 52 28 16 59
34 70 41 25 18 21 19 74 -15z"/>
<path d="M1446 2285 c-20 -14 -38 -25 -40 -25 -2 0 -62 -34 -132 -76 -141 -84
-176 -104 -244 -142 -25 -13 -103 -60 -175 -102 -71 -43 -147 -87 -167 -99
-95 -53 -121 -68 -245 -142 -73 -44 -138 -79 -145 -79 -8 0 -8 -4 2 -13 13
-12 226 -140 345 -207 22 -13 54 -31 70 -41 17 -11 36 -22 44 -26 14 -6 346
-201 381 -223 8 -5 51 -29 95 -54 44 -25 121 -70 170 -100 l90 -54 5 296 5
297 85 0 85 0 3 -292 c1 -161 4 -293 6 -293 2 0 60 33 127 73 68 40 131 76
139 80 8 4 27 15 41 25 15 9 53 33 85 52 33 19 68 40 79 47 11 7 31 18 45 25
74 38 292 173 296 183 3 6 4 51 2 98 l-3 87 -55 -33 c-30 -18 -86 -51 -125
-72 -38 -21 -144 -80 -234 -132 -90 -52 -170 -92 -177 -89 -12 4 -14 68 -14
360 0 233 4 357 10 361 6 4 60 -23 120 -59 60 -36 112 -66 114 -66 3 0 84 -47
180 -105 97 -58 178 -105 181 -105 3 0 5 45 5 100 0 82 -3 100 -15 100 -8 0
-15 3 -15 8 0 4 -21 19 -47 32 -26 14 -180 104 -342 201 -163 96 -303 178
-311 182 -8 4 -30 16 -47 27 l-33 20 0 -300 0 -300 -95 0 -95 0 0 300 c0 165
-4 300 -9 300 -4 0 -25 -11 -45 -25z m-164 -671 c2 -273 0 -498 -3 -500 -11
-7 -204 94 -215 113 -6 10 -36 65 -66 123 -31 58 -71 133 -90 167 l-33 63 -3
-120 c-1 -66 -6 -120 -11 -120 -5 0 -48 21 -95 46 l-86 46 0 178 c0 160 2 178
18 183 9 3 50 24 91 47 l74 42 31 -38 c17 -21 47 -56 66 -79 19 -22 51 -62 70
-88 19 -25 38 -47 43 -47 4 0 7 84 7 186 0 196 0 197 50 222 14 6 50 25 80 42
30 16 58 30 62 30 4 0 9 -223 10 -496z m-652 -10 c0 -74 -2 -134 -5 -134 -3 0
-54 29 -115 65 -98 58 -135 94 -97 95 6 0 55 27 107 59 52 32 98 56 103 54 4
-2 7 -65 7 -139z"/>
<path d="M2610 1630 c0 -76 -3 -145 -6 -154 -11 -30 18 -17 186 84 8 5 30 17
48 26 17 9 32 19 32 23 0 3 -59 41 -130 83 l-130 77 0 -139z"/>
</g>
</svg>
