<?xml version="1.0" standalone="no"?>
<!DOCTYPE svg PUBLIC "-//W3C//DTD SVG 20010904//EN"
 "http://www.w3.org/TR/2001/REC-SVG-20010904/DTD/svg10.dtd">
<svg version="1.0" xmlns="http://www.w3.org/2000/svg"
 width="215.000000pt" height="124.000000pt" viewBox="0 0 215.000000 124.000000"
 preserveAspectRatio="xMidYMid meet">

<g transform="translate(0.000000,124.000000) scale(0.100000,-0.100000)"
fill="#000000" stroke="none">
<path d="M690 1024 c-206 -119 -446 -257 -533 -307 -125 -71 -155 -93 -145
-102 7 -6 121 -74 253 -150 132 -76 260 -150 285 -165 140 -85 518 -300 528
-300 6 0 87 44 179 99 223 131 631 368 771 449 62 35 114 68 117 72 3 4 -66
48 -153 98 -86 49 -325 187 -531 306 -205 119 -378 216 -385 216 -6 0 -180
-97 -386 -216z m545 113 c66 -39 199 -116 295 -172 577 -334 582 -337 568
-350 -7 -7 -123 -77 -258 -156 -135 -78 -359 -209 -498 -291 -139 -81 -259
-148 -267 -148 -7 0 -100 51 -207 113 -106 63 -330 194 -498 292 -168 98 -311
183 -318 190 -11 9 8 24 90 72 108 64 332 194 383 223 31 17 99 57 385 223
140 81 167 94 185 85 11 -6 74 -43 140 -81z"/>
<path d="M1000 1171 c-36 -21 -229 -133 -430 -249 -555 -319 -513 -294 -498
-307 7 -7 143 -88 303 -180 160 -92 369 -214 466 -271 264 -153 226 -142 311
-91 40 24 145 86 233 137 88 51 234 137 325 190 91 53 214 125 274 160 73 43
104 66 95 71 -8 4 -234 136 -504 293 -269 157 -494 286 -500 286 -5 0 -39 -17
-75 -39z m152 -45 c40 -24 186 -110 323 -191 423 -250 520 -307 523 -310 4 -3
-36 -27 -438 -265 -151 -90 -320 -190 -375 -223 -86 -51 -103 -58 -125 -50
-21 8 -826 474 -898 520 l-24 15 21 14 c12 9 90 55 174 103 83 48 285 165 447
259 162 95 296 172 297 172 1 0 35 -20 75 -44z"/>
<path d="M940 1071 c-36 -21 -184 -107 -330 -191 -146 -84 -304 -176 -352
-204 -49 -27 -85 -53 -80 -57 6 -7 150 -91 747 -437 44 -26 82 -47 85 -47 7 0
8 36 9 243 l1 173 58 -3 57 -3 3 -197 2 -196 213 125 c116 69 247 145 290 170
l77 46 0 58 0 58 -102 -58 c-268 -152 -321 -181 -324 -181 -2 0 -4 115 -4 256
0 209 2 255 13 251 8 -3 102 -57 210 -121 108 -64 199 -116 202 -116 3 0 5 26
5 59 l0 59 -87 50 c-49 27 -128 74 -178 103 -49 28 -139 80 -200 115 l-110 62
-3 -199 -2 -200 -63 3 -62 3 -2 204 c-1 112 -3 204 -5 206 -2 2 -32 -14 -68
-34z m-80 -446 c0 -190 -2 -345 -5 -345 -3 0 -36 15 -73 34 l-67 34 -70 128
-70 129 -3 -82 c-2 -46 -5 -83 -8 -83 -2 0 -31 14 -64 30 l-60 30 0 120 0 119
66 37 c57 32 67 34 77 21 7 -9 39 -50 72 -92 l60 -75 5 135 5 136 60 34 c33
18 63 33 68 34 4 0 7 -154 7 -344z m-450 0 c0 -52 -3 -95 -8 -95 -4 0 -43 21
-86 46 l-79 46 44 27 c94 58 114 69 122 70 4 1 7 -42 7 -94z"/>
<path d="M1780 625 c0 -52 3 -95 6 -95 3 0 44 21 91 46 l85 47 -83 48 c-46 27
-87 49 -91 49 -5 0 -8 -43 -8 -95z"/>
</g>
</svg>
