<?xml version="1.0" standalone="no"?>
<!DOCTYPE svg PUBLIC "-//W3C//DTD SVG 20010904//EN"
 "http://www.w3.org/TR/2001/REC-SVG-20010904/DTD/svg10.dtd">
<svg version="1.0" xmlns="http://www.w3.org/2000/svg"
 width="1148.000000pt" height="1148.000000pt" viewBox="0 0 1148.000000 1148.000000"
 preserveAspectRatio="xMidYMid meet">
    
<g transform="translate(0.000000,1148.000000) scale(0.100000,-0.100000)"
fill="#ffffff" stroke="none">
<path d="M5645 9002 c-123 -65 -237 -127 -318 -174 -38 -21 -71 -38 -74 -38
-3 0 -18 -9 -34 -21 -16 -11 -29 -17 -29 -12 0 4 -4 3 -8 -3 -4 -6 -52 -35
-106 -65 -54 -30 -124 -68 -155 -86 -31 -18 -78 -45 -106 -60 -27 -15 -63 -36
-80 -45 -16 -9 -41 -23 -55 -30 -14 -7 -27 -15 -30 -18 -3 -3 -30 -19 -60 -34
-30 -16 -60 -32 -66 -37 -6 -5 -31 -20 -55 -33 -58 -31 -152 -84 -237 -135
-29 -17 -55 -31 -57 -31 -2 0 -37 -20 -77 -44 -127 -77 -162 -97 -190 -109
-16 -6 -28 -15 -28 -19 0 -4 -4 -8 -9 -8 -8 0 -167 -89 -251 -139 -86 -52
-333 -191 -340 -191 -4 0 -10 -4 -12 -8 -3 -7 -95 -62 -228 -135 -30 -16 -59
-33 -65 -38 -5 -4 -39 -24 -75 -44 -36 -21 -81 -47 -100 -58 -19 -11 -55 -31
-80 -45 -25 -14 -56 -32 -70 -41 -14 -10 -36 -22 -50 -29 -14 -7 -42 -22 -62
-35 -21 -12 -61 -35 -90 -51 -29 -15 -60 -34 -69 -42 -8 -8 -18 -14 -22 -14
-5 0 -182 -100 -247 -139 -21 -13 -381 -221 -525 -303 -66 -38 -127 -73 -135
-78 -35 -22 -243 -140 -247 -140 -2 0 -32 -17 -66 -39 -34 -21 -136 -80 -227
-132 -91 -52 -174 -99 -185 -106 -11 -6 -36 -20 -55 -31 -109 -58 -477 -285
-490 -302 -3 -4 -21 -17 -41 -31 -47 -31 -91 -83 -84 -101 6 -15 94 -72 295
-191 74 -44 146 -87 160 -96 14 -8 34 -21 45 -27 52 -29 218 -127 337 -199 9
-5 42 -23 72 -40 31 -16 56 -33 56 -37 0 -4 6 -8 14 -8 7 0 25 -9 38 -20 14
-10 28 -17 30 -14 3 2 11 -2 18 -11 7 -8 19 -15 26 -15 8 0 14 -4 14 -10 0 -5
4 -10 10 -10 5 0 47 -22 92 -49 46 -27 101 -59 123 -71 22 -13 54 -31 70 -41
17 -11 37 -22 45 -26 8 -4 55 -31 104 -60 49 -29 90 -53 92 -53 2 0 38 -20 80
-45 41 -25 80 -45 85 -45 5 0 9 -4 9 -9 0 -5 8 -11 18 -14 19 -6 94 -49 102
-58 3 -3 10 -8 15 -10 10 -4 234 -130 265 -149 8 -6 108 -64 222 -130 113 -65
226 -131 250 -145 24 -14 51 -28 61 -32 9 -3 17 -9 17 -14 0 -5 5 -9 10 -9 6
0 40 -18 76 -40 36 -22 68 -40 70 -40 1 0 23 -13 47 -30 25 -16 49 -30 55 -30
6 0 12 -4 14 -8 1 -4 32 -25 68 -45 36 -20 86 -49 111 -65 25 -15 96 -56 158
-92 62 -36 120 -69 130 -75 61 -36 172 -102 203 -122 21 -12 40 -23 42 -23 6
0 161 -90 206 -118 14 -9 28 -15 33 -14 4 1 7 -3 7 -8 0 -6 4 -10 10 -10 5 0
39 -18 75 -40 36 -22 67 -40 69 -40 6 0 249 -140 264 -152 6 -6 12 -7 12 -2 0
5 4 4 8 -1 9 -13 168 -105 182 -105 5 0 10 -4 10 -8 0 -5 16 -14 35 -22 19 -8
35 -17 35 -22 0 -4 4 -8 9 -8 6 0 36 -15 68 -34 32 -18 81 -46 108 -61 28 -15
176 -98 330 -184 154 -86 328 -181 386 -211 l107 -54 73 37 c100 50 237 123
336 180 45 26 87 47 93 47 5 0 10 3 10 8 0 4 31 23 68 42 37 19 69 38 72 41 3
3 36 23 74 45 38 21 85 48 105 60 20 11 104 60 186 109 83 49 186 110 230 135
158 93 261 153 290 170 17 9 185 108 374 219 189 110 345 201 347 201 2 0 28
16 58 35 30 19 58 35 61 35 4 0 19 8 33 19 15 10 47 29 72 43 69 38 434 252
505 295 11 7 27 15 35 20 8 4 47 26 85 49 75 45 114 68 240 139 44 26 94 54
110 64 44 27 226 132 255 148 14 8 43 25 65 39 22 13 58 34 80 46 22 11 58 32
80 47 22 14 42 26 45 26 3 0 33 17 66 38 34 20 67 37 73 37 6 0 11 4 11 8 0 5
12 15 28 23 28 15 426 242 452 259 8 5 44 26 80 46 36 20 85 49 110 64 25 15
77 45 115 67 39 23 167 97 285 166 231 134 429 256 471 291 l25 22 -20 17
c-56 45 -125 92 -286 192 -96 60 -191 118 -210 131 -55 34 -550 321 -650 376
-19 11 -53 30 -75 44 -22 14 -53 31 -70 40 -16 8 -43 23 -60 34 -16 10 -41 25
-55 33 -14 7 -41 23 -60 34 -19 11 -78 44 -130 74 -52 29 -97 56 -100 59 -3 3
-23 15 -45 27 -22 11 -56 30 -75 41 -19 11 -73 41 -120 68 -47 27 -86 52 -88
56 -2 4 -7 8 -12 8 -4 0 -111 59 -237 131 -125 73 -244 141 -263 152 -19 10
-39 23 -45 27 -5 4 -31 19 -56 33 -76 41 -94 52 -99 57 -3 3 -16 11 -30 17
-14 7 -47 25 -75 41 -27 16 -122 71 -210 122 -88 51 -185 107 -215 123 -30 17
-57 33 -60 36 -3 3 -30 19 -60 35 -30 16 -62 35 -71 42 -8 8 -18 14 -22 14 -3
0 -81 44 -174 98 -92 54 -242 140 -333 192 -91 52 -166 97 -168 102 -2 4 -9 8
-15 8 -6 0 -58 28 -116 61 -192 112 -265 154 -356 203 -11 6 -22 13 -25 16 -3
3 -21 13 -40 24 -29 15 -175 97 -390 219 -19 11 -64 35 -100 55 -36 19 -69 38
-75 42 -5 4 -55 31 -110 60 -55 29 -104 56 -110 60 -19 14 -192 100 -201 100
-5 0 -49 -22 -99 -48z m238 -91 c29 -16 103 -59 166 -95 62 -36 117 -66 122
-66 5 0 9 -4 9 -10 0 -5 4 -10 9 -10 4 0 45 -21 90 -47 45 -27 107 -62 137
-78 29 -17 59 -36 66 -43 7 -7 16 -12 21 -12 7 0 155 -86 422 -244 38 -22 78
-46 90 -53 11 -7 27 -16 35 -20 14 -6 146 -84 263 -154 27 -16 53 -29 58 -29
5 0 9 -4 9 -10 0 -5 5 -10 10 -10 6 0 40 -18 76 -40 36 -22 68 -40 70 -40 3 0
21 -11 42 -23 20 -13 57 -35 82 -49 25 -14 99 -57 165 -95 66 -39 172 -100
235 -136 63 -37 122 -71 130 -76 8 -5 76 -44 150 -87 74 -43 137 -81 138 -86
2 -4 9 -8 15 -8 7 0 50 -23 97 -51 47 -28 114 -67 150 -86 36 -20 72 -41 80
-47 15 -11 23 -16 99 -58 20 -11 73 -42 119 -69 45 -27 87 -49 92 -49 6 0 10
-4 10 -10 0 -5 5 -10 10 -10 6 0 40 -18 76 -40 36 -22 68 -40 70 -40 2 0 47
-26 101 -59 54 -32 118 -69 143 -83 93 -53 226 -130 250 -146 14 -9 27 -17 30
-17 7 -1 201 -114 232 -136 15 -10 29 -19 31 -19 6 0 217 -123 437 -256 91
-54 174 -104 185 -110 45 -24 70 -39 75 -45 3 -3 30 -20 60 -37 67 -39 71 -42
184 -116 50 -33 92 -63 94 -68 2 -4 9 -8 15 -8 15 0 87 -71 87 -86 0 -19 -50
-56 -191 -144 -168 -105 -191 -119 -209 -126 -8 -4 -22 -13 -30 -20 -8 -6 -31
-21 -50 -31 -19 -11 -114 -67 -210 -125 -170 -102 -595 -354 -655 -388 -26
-15 -176 -102 -320 -186 -22 -13 -46 -27 -54 -30 -8 -4 -85 -49 -173 -101 -87
-51 -163 -93 -168 -93 -6 0 -10 -4 -10 -10 0 -5 -4 -10 -10 -10 -5 0 -44 -21
-87 -46 -89 -52 -82 -48 -188 -111 -44 -26 -96 -56 -115 -66 -19 -11 -47 -28
-62 -38 -14 -11 -28 -19 -31 -19 -3 0 -52 -28 -109 -61 -57 -34 -119 -70 -138
-81 -19 -11 -51 -30 -70 -41 -19 -12 -47 -29 -61 -37 -29 -16 -404 -235 -429
-250 -113 -69 -221 -130 -229 -130 -5 0 -11 -4 -13 -8 -1 -5 -46 -32 -98 -62
-52 -29 -106 -61 -120 -70 -14 -10 -45 -29 -70 -42 -80 -46 -414 -240 -450
-263 -19 -12 -45 -25 -57 -29 -13 -4 -23 -12 -23 -17 0 -5 -4 -9 -9 -9 -5 0
-69 -35 -143 -77 -146 -84 -504 -285 -528 -296 -8 -4 -35 -19 -60 -33 -98 -56
-286 -149 -307 -152 -20 -3 -111 40 -268 126 -38 21 -97 53 -130 71 -33 18
-66 38 -72 43 -7 6 -13 7 -13 3 0 -5 -8 -1 -17 7 -10 8 -54 34 -98 58 -44 23
-84 46 -90 50 -5 4 -35 21 -65 37 -67 37 -174 99 -215 124 -16 10 -41 23 -54
29 -13 6 -35 19 -50 29 -14 10 -46 29 -71 43 -25 14 -97 56 -160 94 -63 38
-127 75 -142 84 -14 8 -148 87 -297 175 -149 88 -283 166 -298 174 -16 8 -31
19 -35 25 -4 6 -8 8 -8 4 0 -4 -27 10 -61 32 -33 21 -74 45 -90 52 -16 7 -29
16 -29 20 0 5 -4 8 -9 8 -6 0 -65 33 -133 73 -271 161 -317 187 -327 187 -6 0
-11 3 -11 8 0 4 -23 18 -50 31 -28 14 -50 29 -50 33 0 4 -4 8 -9 8 -9 0 -619
353 -638 370 -7 5 -15 10 -18 10 -3 0 -35 18 -71 40 -36 22 -70 40 -75 40 -5
0 -9 5 -9 10 0 6 -5 10 -11 10 -7 0 -35 14 -63 32 -28 17 -66 39 -83 49 -18
10 -126 73 -240 140 -115 67 -221 129 -238 139 -16 9 -55 32 -85 50 -30 18
-64 38 -75 44 -69 38 -171 102 -173 108 -2 5 -9 8 -15 8 -7 0 -39 17 -72 38
-33 21 -67 41 -75 45 -8 4 -33 19 -55 32 -22 14 -48 28 -57 32 -10 3 -18 9
-18 14 0 5 -4 9 -10 9 -5 0 -68 36 -141 80 -72 44 -135 80 -140 80 -5 0 -9 5
-9 10 0 6 -5 10 -10 10 -6 0 -37 17 -68 38 -31 20 -70 44 -85 52 -16 8 -45 28
-64 45 -33 29 -35 33 -23 55 15 28 47 58 105 98 22 15 41 30 43 35 2 4 7 7 12
7 4 0 34 18 66 39 82 54 434 261 445 261 5 0 9 3 9 8 0 4 10 12 23 18 23 12
108 61 162 93 17 10 206 121 420 246 215 125 408 239 430 252 22 13 52 29 67
36 16 6 28 15 28 19 0 4 4 8 10 8 8 0 123 65 180 101 8 5 23 12 33 15 9 4 17
10 17 15 0 5 4 9 10 9 7 0 110 56 200 110 15 9 162 94 230 133 19 11 80 46
135 77 55 31 142 81 193 111 170 99 187 109 207 119 11 5 27 14 35 20 27 17
168 100 210 123 22 12 106 61 188 109 195 114 213 125 242 141 14 7 95 55 182
105 86 51 161 92 167 92 6 0 11 3 11 8 0 4 21 18 48 32 26 13 70 39 99 57 29
18 54 33 57 33 3 0 30 16 60 35 30 19 58 35 61 35 4 0 19 8 33 19 15 10 47 29
72 43 25 14 61 35 80 46 19 11 58 33 85 48 28 14 53 32 57 38 4 6 8 7 8 2 0
-5 8 -2 18 6 15 13 54 36 182 104 19 11 40 24 46 30 7 6 27 17 46 24 18 8 35
16 38 19 26 29 353 185 410 196 12 2 25 6 27 9 11 11 81 -6 126 -33z"/>
<path d="M5675 8865 c-27 -13 -55 -25 -62 -25 -6 0 -13 -3 -15 -7 -1 -5 -25
-20 -53 -34 -47 -24 -383 -218 -415 -239 -8 -6 -24 -14 -36 -19 -12 -5 -46
-26 -77 -45 -31 -20 -61 -36 -67 -36 -5 0 -10 -4 -10 -10 0 -5 -4 -10 -9 -10
-8 0 -330 -182 -371 -210 -8 -6 -26 -16 -40 -22 -14 -7 -27 -15 -30 -19 -7 -9
-68 -40 -76 -38 -4 0 -10 -4 -13 -9 -3 -5 -33 -24 -66 -42 -33 -18 -67 -39
-76 -46 -9 -8 -18 -12 -21 -9 -3 3 -11 -1 -18 -10 -7 -8 -19 -15 -26 -15 -8 0
-14 -4 -14 -10 0 -5 -4 -10 -8 -10 -8 0 -345 -190 -368 -207 -5 -4 -19 -13
-30 -19 -191 -107 -399 -229 -412 -241 -7 -7 -22 -13 -33 -13 -10 0 -19 -4
-19 -8 0 -4 -19 -18 -42 -30 -24 -12 -50 -26 -58 -32 -32 -21 -151 -90 -154
-90 -2 0 -33 -17 -67 -38 -73 -44 -173 -101 -206 -116 -13 -6 -23 -14 -23 -18
0 -5 -4 -8 -10 -8 -5 0 -44 -20 -86 -45 -41 -25 -78 -45 -81 -45 -3 0 -17 -8
-31 -19 -15 -10 -49 -31 -77 -46 -55 -30 -224 -127 -295 -169 -25 -15 -53 -29
-62 -33 -10 -3 -18 -9 -18 -14 0 -5 -4 -9 -9 -9 -5 0 -35 -15 -68 -33 -139
-80 -465 -269 -495 -287 -18 -11 -44 -25 -58 -32 -14 -7 -47 -26 -75 -43 -79
-48 -108 -64 -145 -83 -19 -9 -37 -19 -40 -23 -3 -3 -106 -64 -230 -136 -296
-173 -343 -200 -357 -213 -7 -5 -15 -10 -18 -10 -7 0 -73 -43 -172 -113 -49
-34 -83 -65 -83 -75 0 -9 22 -31 48 -49 67 -45 302 -190 402 -248 47 -27 87
-53 88 -57 2 -4 8 -8 14 -8 5 0 53 -26 107 -58 85 -51 272 -162 364 -216 183
-106 385 -223 487 -281 69 -40 166 -96 215 -125 50 -28 108 -62 130 -75 88
-49 216 -123 235 -135 8 -5 38 -22 65 -38 28 -16 67 -38 88 -50 20 -12 52 -30
70 -40 17 -11 142 -83 277 -162 135 -79 261 -152 280 -163 39 -22 234 -135
265 -154 11 -7 28 -16 38 -19 9 -3 17 -10 17 -15 0 -5 4 -9 10 -9 5 0 44 -20
86 -45 41 -25 77 -45 79 -45 1 0 51 -29 110 -65 59 -36 108 -65 110 -65 1 0
114 -66 251 -146 261 -153 515 -302 589 -344 23 -14 120 -70 215 -125 94 -55
188 -109 208 -121 311 -175 402 -219 507 -244 61 -14 79 -15 127 -4 46 11 204
93 243 126 5 5 87 54 180 110 94 55 215 127 270 160 55 33 123 73 150 88 28
15 95 54 150 87 239 144 515 303 525 303 5 0 10 3 10 8 0 4 10 12 23 18 12 6
142 81 290 167 147 86 271 157 275 157 5 0 13 5 20 12 7 7 37 26 67 43 30 16
118 67 195 113 77 45 144 82 150 82 5 0 10 4 10 8 0 5 12 15 28 23 15 7 43 23
62 35 19 11 55 32 80 46 25 14 134 77 242 141 109 65 202 117 208 117 5 0 10
5 10 10 0 6 4 10 9 10 5 0 98 52 207 116 200 117 341 200 554 324 63 37 177
104 254 148 76 45 142 82 147 82 5 0 9 5 9 10 0 6 6 10 13 10 7 0 35 15 62 34
28 18 60 36 73 40 12 4 22 12 22 17 0 6 4 8 9 4 5 -3 13 0 16 5 4 6 17 16 28
21 12 5 38 19 58 32 20 12 78 46 130 76 52 30 95 58 97 63 2 4 8 8 13 8 5 0
40 20 79 45 39 25 74 45 79 45 5 0 11 4 13 8 2 4 35 29 73 55 125 83 169 144
117 160 -19 6 -134 70 -172 95 -14 9 -34 22 -45 28 -59 33 -419 242 -455 264
-14 9 -91 53 -156 90 -123 70 -200 116 -204 121 -3 3 -15 9 -27 13 -13 4 -23
12 -23 17 0 5 -9 9 -20 9 -11 0 -20 5 -20 10 0 6 -7 10 -15 10 -8 0 -15 4 -15
8 0 4 -12 13 -27 20 -16 7 -37 18 -48 25 -34 21 -154 91 -193 112 -20 11 -72
41 -115 68 -43 26 -81 47 -86 47 -5 0 -14 7 -21 15 -7 8 -16 13 -20 10 -5 -3
-11 -1 -14 4 -3 5 -43 31 -89 57 -45 26 -113 66 -152 89 -38 23 -77 45 -85 48
-8 4 -33 18 -55 32 -36 22 -150 88 -230 133 -16 9 -31 20 -33 25 -2 4 -7 7
-12 7 -10 0 -448 253 -467 270 -7 5 -15 10 -19 10 -4 0 -40 20 -80 45 -39 25
-75 45 -79 45 -5 0 -23 11 -41 25 -18 14 -35 25 -38 25 -3 0 -29 14 -58 31
-51 31 -80 48 -150 87 -18 11 -142 83 -276 160 -134 78 -245 142 -247 142 -1
0 -33 18 -70 41 -37 22 -82 49 -100 59 -18 10 -43 24 -56 32 -13 7 -26 16 -29
19 -3 3 -20 11 -37 18 -18 8 -33 18 -33 23 0 5 -4 7 -9 3 -5 -3 -12 -1 -15 4
-4 5 -30 23 -59 39 -136 75 -176 98 -235 134 -34 21 -67 38 -72 38 -6 0 -10 5
-10 10 0 6 -4 10 -10 10 -9 0 -80 39 -185 101 -27 16 -59 34 -70 39 -11 6 -27
14 -35 20 -8 5 -47 28 -87 50 -39 22 -89 49 -110 61 -21 12 -67 38 -103 57
-36 20 -81 45 -100 57 -40 24 -126 65 -137 65 -5 0 -30 -11 -58 -25z m240
-283 c60 -36 118 -72 128 -80 9 -8 17 -11 17 -7 0 4 8 1 18 -7 9 -8 44 -30 77
-48 33 -19 62 -36 65 -39 9 -10 64 -42 83 -48 9 -3 17 -9 17 -14 0 -5 5 -9 11
-9 6 0 57 -28 113 -62 55 -34 110 -66 121 -73 19 -10 162 -95 195 -115 42 -26
281 -166 320 -188 25 -14 57 -33 72 -43 14 -11 29 -19 33 -19 4 0 27 -13 52
-30 24 -16 45 -30 47 -30 2 0 56 -31 120 -70 65 -38 121 -70 127 -70 5 0 9 -4
9 -10 0 -5 4 -10 9 -10 10 0 198 -110 244 -142 15 -11 27 -16 27 -12 0 4 8 0
18 -8 15 -14 239 -147 437 -262 39 -22 73 -45 77 -50 4 -6 8 -7 8 -2 0 5 8 2
18 -6 9 -8 44 -30 77 -48 33 -19 62 -37 63 -42 2 -4 8 -8 14 -8 6 0 39 -18 74
-40 35 -22 66 -40 68 -40 3 0 22 -12 43 -26 21 -14 47 -30 58 -35 11 -5 27
-13 35 -19 56 -36 202 -120 210 -120 6 0 10 -4 10 -10 0 -5 4 -10 9 -10 5 0
85 -45 176 -100 92 -55 170 -100 172 -100 3 0 25 -13 50 -30 24 -16 46 -30 47
-30 2 0 34 -18 70 -40 36 -22 70 -40 76 -40 5 0 10 -4 10 -9 0 -5 8 -11 18
-14 9 -4 35 -17 57 -30 223 -135 449 -267 456 -267 5 0 9 -4 9 -10 0 -5 5 -10
10 -10 6 0 27 -11 48 -24 20 -13 126 -76 234 -140 118 -71 195 -122 192 -129
-6 -15 -58 -48 -399 -253 -148 -90 -275 -168 -282 -174 -7 -5 -15 -10 -19 -10
-6 0 -84 -46 -149 -88 -11 -6 -39 -22 -62 -34 -24 -12 -43 -26 -43 -30 0 -4
-4 -8 -9 -8 -8 0 -98 -52 -243 -139 -61 -37 -164 -96 -173 -100 -5 -2 -12 -7
-15 -11 -3 -3 -25 -18 -50 -31 -25 -14 -156 -91 -291 -171 -135 -80 -256 -152
-270 -159 -13 -8 -26 -16 -29 -19 -3 -3 -22 -14 -42 -25 -20 -11 -83 -48 -140
-82 -169 -101 -561 -334 -593 -353 -135 -78 -281 -165 -285 -170 -3 -3 -16
-11 -30 -18 -41 -20 -81 -45 -142 -84 -31 -21 -62 -38 -67 -38 -6 0 -20 -8
-31 -18 -11 -9 -37 -26 -58 -37 -31 -17 -154 -90 -212 -125 -58 -36 -299 -178
-310 -183 -8 -4 -35 -21 -60 -37 -25 -16 -56 -35 -70 -42 -14 -7 -47 -26 -75
-44 -61 -39 -394 -234 -399 -234 -2 0 -33 -17 -67 -39 -35 -21 -75 -42 -89
-46 -14 -4 -27 -11 -30 -15 -11 -15 -128 -52 -181 -57 -70 -6 -63 -9 -604 300
-154 88 -300 171 -324 185 -25 14 -67 38 -93 53 -27 16 -53 29 -58 29 -6 0
-10 5 -10 10 0 6 -4 10 -10 10 -5 0 -33 14 -62 31 -73 44 -114 67 -178 102
-30 16 -62 36 -71 43 -8 8 -18 14 -21 14 -3 0 -61 32 -129 71 -137 79 -171 99
-226 130 -21 12 -85 49 -143 83 -58 35 -130 76 -160 93 -77 43 -432 248 -509
295 -34 21 -65 38 -67 38 -2 0 -33 18 -69 40 -36 22 -70 40 -75 40 -6 0 -10 4
-10 10 0 5 -3 9 -7 8 -5 -1 -19 5 -33 14 -21 13 -120 71 -257 149 -17 10 -49
29 -70 42 -21 13 -45 27 -53 30 -8 4 -28 15 -45 26 -16 10 -46 27 -65 38 -19
11 -59 34 -88 52 -29 17 -57 31 -62 31 -6 0 -10 5 -10 10 0 6 -4 10 -9 10 -6
0 -62 32 -127 70 -64 39 -118 70 -120 70 -2 0 -33 18 -69 40 -36 22 -67 40
-69 40 -3 0 -41 23 -86 50 -45 28 -83 50 -85 50 -2 0 -33 18 -67 40 -35 22
-69 40 -75 40 -7 0 -13 3 -13 8 0 4 -10 12 -23 18 -21 11 -201 116 -275 162
-20 12 -44 25 -52 29 -8 4 -17 9 -20 12 -3 4 -16 12 -30 19 -14 6 -34 18 -44
24 -57 37 -132 83 -136 83 -5 1 -70 41 -138 86 -24 16 -47 29 -53 29 -25 0 0
21 102 85 60 39 116 76 124 83 7 6 16 12 19 12 3 0 71 40 153 88 81 49 240
142 353 207 113 65 328 190 479 277 150 87 292 169 314 181 22 12 47 27 56 32
9 6 43 26 76 45 33 19 69 40 80 47 11 6 34 19 50 27 17 9 44 24 60 35 66 41
378 221 383 221 3 0 13 6 21 14 9 7 43 28 76 46 33 17 109 60 169 96 60 35
113 64 117 64 5 0 9 4 9 8 0 5 16 14 35 22 19 8 35 17 35 22 0 4 4 8 9 8 9 0
126 67 621 355 140 82 268 156 285 164 16 9 32 19 35 22 3 3 51 32 108 65 57
32 118 67 135 78 196 115 287 166 295 166 5 0 15 6 21 14 7 8 31 24 54 35 23
12 56 30 72 40 17 10 134 78 260 151 127 73 266 154 310 180 93 54 69 59 250
-48z"/>
<path d="M5249 8272 c-118 -61 -173 -91 -272 -148 -32 -19 -60 -34 -62 -34 -2
0 -24 -13 -48 -30 -25 -16 -48 -30 -51 -30 -4 0 -35 -17 -69 -39 -34 -21 -116
-69 -182 -107 -66 -37 -123 -72 -126 -77 -3 -5 -8 -7 -10 -6 -4 3 -114 -59
-179 -100 -14 -8 -27 -16 -30 -16 -3 0 -16 -7 -30 -16 -77 -48 -181 -109 -185
-109 -3 0 -34 -18 -70 -40 -36 -22 -67 -40 -69 -40 -2 0 -44 -24 -93 -54 -49
-29 -109 -64 -133 -78 -48 -26 -390 -223 -550 -316 -52 -30 -142 -82 -200
-115 -58 -33 -118 -68 -135 -78 -16 -11 -37 -22 -45 -26 -14 -6 -130 -74 -160
-93 -8 -5 -28 -17 -45 -26 -24 -14 -396 -229 -925 -537 -47 -27 -101 -59 -120
-69 -19 -11 -39 -23 -45 -28 -5 -4 -41 -24 -80 -45 -177 -95 -385 -243 -385
-274 0 -13 314 -206 651 -401 54 -31 301 -176 332 -194 18 -11 49 -29 69 -40
43 -25 296 -172 318 -186 27 -16 234 -136 280 -162 25 -14 122 -70 215 -124
94 -55 177 -103 185 -107 8 -4 29 -16 45 -27 17 -11 37 -23 45 -27 8 -4 38
-20 65 -36 28 -17 66 -39 85 -50 95 -53 125 -72 128 -79 2 -4 8 -8 14 -8 6 0
44 -20 85 -45 40 -25 75 -45 77 -45 2 0 66 -37 142 -82 76 -45 157 -91 179
-104 22 -12 108 -61 190 -109 83 -48 166 -97 185 -107 19 -11 98 -57 175 -102
131 -77 178 -104 265 -154 19 -10 114 -66 210 -122 96 -57 191 -112 210 -122
19 -10 51 -28 70 -40 83 -50 221 -119 229 -113 11 6 22 68 27 145 5 88 15 897
17 1505 l3 560 109 -2 c61 -1 153 -5 205 -7 52 -3 139 -8 194 -10 54 -3 100
-7 103 -9 4 -5 10 -317 18 -1041 2 -241 6 -441 9 -443 2 -2 0 -20 -4 -39 -4
-19 -5 -36 -1 -38 3 -2 6 -122 6 -265 0 -144 4 -261 9 -261 4 0 34 16 66 35
32 19 63 35 69 35 6 0 11 5 11 10 0 6 4 10 9 10 4 0 65 34 134 75 69 41 130
75 135 75 6 0 12 4 14 8 2 5 49 35 106 68 135 77 122 70 247 143 237 140 385
227 503 297 68 41 125 74 128 74 3 0 10 5 17 11 7 6 38 25 69 42 31 18 137 79
235 137 98 58 183 106 190 108 7 2 13 8 13 13 0 5 4 9 9 9 6 0 88 46 183 102
205 120 460 268 491 285 12 7 108 64 212 128 105 63 202 120 218 126 15 6 28
16 28 22 4 38 3 590 -1 601 -4 10 -28 1 -90 -35 -47 -26 -90 -53 -97 -58 -7
-6 -15 -11 -18 -11 -4 0 -37 -17 -73 -39 -95 -55 -162 -92 -197 -109 -16 -8
-37 -21 -45 -27 -8 -7 -46 -30 -85 -50 -38 -20 -74 -40 -80 -44 -5 -5 -35 -22
-65 -38 -50 -27 -163 -91 -200 -113 -128 -75 -175 -100 -186 -100 -8 0 -14 -4
-14 -9 0 -5 -16 -16 -35 -25 -19 -10 -72 -38 -118 -65 -45 -26 -89 -50 -97
-54 -8 -4 -28 -15 -45 -25 -30 -19 -93 -54 -175 -100 -25 -13 -85 -47 -135
-75 -49 -28 -92 -50 -94 -48 -2 1 -7 -1 -10 -6 -7 -12 -162 -99 -191 -108 -11
-3 -20 -11 -20 -16 0 -6 -4 -8 -9 -4 -5 3 -12 1 -15 -4 -9 -15 -167 -93 -174
-87 -14 15 -21 488 -21 1406 0 901 3 1013 24 1212 4 42 21 78 36 78 9 0 122
-57 159 -80 8 -6 44 -26 80 -46 145 -81 204 -115 245 -142 11 -6 27 -15 35
-19 8 -4 32 -17 53 -30 38 -24 71 -43 157 -91 25 -14 68 -40 97 -58 28 -18 69
-42 90 -54 21 -11 55 -31 76 -43 175 -103 298 -176 337 -199 25 -15 52 -31 60
-35 8 -3 33 -18 55 -32 58 -37 97 -60 125 -73 14 -7 27 -15 30 -18 3 -3 25
-16 50 -29 25 -13 52 -30 61 -37 8 -8 18 -14 21 -14 3 0 77 -41 164 -91 236
-136 305 -172 314 -162 16 15 23 126 24 374 l2 246 -165 94 c-90 52 -185 106
-210 120 -25 15 -102 59 -170 98 -68 39 -126 71 -127 71 -1 0 -60 34 -129 75
-70 41 -129 75 -130 75 -2 0 -56 32 -121 70 -64 39 -121 70 -125 70 -5 0 -9 5
-9 10 0 6 -5 10 -10 10 -6 0 -47 21 -91 48 -229 135 -400 232 -410 232 -5 0
-9 5 -9 10 0 6 -4 10 -9 10 -5 0 -80 41 -167 91 -88 50 -178 102 -201 115 -23
13 -106 61 -185 107 -79 46 -150 86 -158 90 -8 4 -28 16 -45 27 -16 11 -36 23
-44 27 -8 3 -125 69 -259 145 -135 76 -249 138 -252 138 -4 0 -13 7 -20 15 -7
8 -16 13 -20 10 -4 -2 -8 -89 -10 -192 -1 -104 -4 -276 -5 -383 -2 -107 -6
-463 -10 -790 -4 -327 -8 -631 -9 -675 l-1 -80 -95 1 c-52 1 -158 5 -235 9
-77 3 -182 8 -234 10 -51 2 -95 6 -97 8 -3 2 -7 238 -9 523 -11 1064 -20 1602
-30 1642 -3 12 -9 22 -14 22 -5 0 -60 -26 -122 -58z m-694 -681 c23 -38 35
-679 34 -1926 0 -752 -5 -1325 -13 -1565 -2 -52 -4 -112 -5 -132 -1 -29 -5
-38 -19 -38 -10 0 -180 81 -377 179 l-360 180 -25 48 c-14 26 -83 154 -154
283 -70 129 -151 278 -179 330 -27 52 -54 100 -58 106 -5 6 -27 46 -50 90 -23
43 -90 167 -148 274 -59 107 -110 204 -114 214 -4 10 -9 17 -12 14 -5 -4 -11
-129 -20 -398 -7 -196 -11 -246 -21 -262 -5 -7 -3 -8 6 -3 8 5 11 4 7 -2 -3
-5 -8 -36 -11 -69 -12 -122 -16 -135 -39 -128 -12 4 -119 54 -237 111 -118 58
-228 111 -245 119 -16 8 -37 18 -45 23 -8 5 -37 20 -65 34 l-50 26 -3 638 -2
639 212 119 c244 137 392 213 428 219 14 3 27 5 30 6 29 11 67 -3 92 -34 56
-71 187 -238 208 -266 49 -65 304 -385 317 -398 7 -7 13 -16 13 -20 0 -4 17
-26 38 -49 20 -23 48 -56 62 -74 14 -18 35 -45 47 -59 l22 -25 1 55 c1 30 3
98 5 150 4 89 9 219 20 525 26 740 24 707 47 727 12 10 32 21 45 24 13 4 23
10 23 14 0 4 8 10 18 13 9 4 35 17 57 29 181 105 487 266 507 268 4 0 9 -4 13
-9z m-2396 -1344 c18 -47 23 -138 26 -432 2 -267 -4 -417 -19 -495 -2 -14 -5
-33 -5 -43 -1 -14 -6 -17 -23 -12 -34 10 -144 67 -313 163 -82 47 -170 96
-195 110 -25 13 -52 31 -61 38 -8 8 -19 14 -23 14 -5 0 -53 27 -108 60 -54 33
-102 60 -106 60 -4 0 -20 10 -36 23 l-28 23 48 27 c27 16 81 48 119 72 39 25
89 54 113 67 23 12 42 26 42 30 0 4 5 8 11 8 6 0 42 20 80 45 38 25 72 45 74
45 2 0 23 13 47 29 71 47 327 190 341 191 4 0 11 -10 16 -23z"/>
<path d="M9540 6260 c-5 -9 -11 -29 -14 -44 -30 -164 -24 -922 8 -953 8 -8
487 234 494 249 2 5 8 8 13 8 5 0 66 32 136 71 71 39 155 85 188 103 33 17 66
37 73 44 7 6 19 12 25 12 18 0 -13 26 -68 55 -27 14 -59 31 -69 38 -11 7 -44
27 -72 45 -29 17 -55 32 -58 32 -3 0 -70 38 -149 84 -79 47 -165 96 -191 110
-25 15 -67 38 -93 52 -27 15 -85 46 -131 69 -75 39 -83 41 -92 25z"/>
</g>
</svg>
